<svg width="18" height="18" viewBox="0 0 18 18" fill="none" xmlns="http://www.w3.org/2000/svg">
<path d="M15.75 3.625C16.9805 3.625 18 4.64453 18 5.875V14.875C18 16.1406 16.9805 17.125 15.75 17.125H2.25C0.984375 17.125 0 16.1406 0 14.875V5.875C0 4.64453 0.984375 3.625 2.25 3.625H4.5V2.5C4.5 1.26953 5.48438 0.25 6.75 0.25H11.25C12.4805 0.25 13.5 1.26953 13.5 2.5V3.625H15.75ZM6.75 1.9375C6.43359 1.9375 6.1875 2.21875 6.1875 2.5V3.625H11.8125V2.5C11.8125 2.21875 11.5312 1.9375 11.25 1.9375H6.75ZM2.25 5.3125C1.93359 5.3125 1.6875 5.59375 1.6875 5.875V9.25H16.3125V5.875C16.3125 5.59375 16.0312 5.3125 15.75 5.3125H2.25ZM15.75 15.4375C16.0312 15.4375 16.3125 15.1914 16.3125 14.875V10.9375H11.25V11.5C11.25 12.1328 10.7227 12.625 10.125 12.625H7.875C7.24219 12.625 6.75 12.1328 6.75 11.5V10.9375H1.6875V14.875C1.6875 15.1914 1.93359 15.4375 2.25 15.4375H15.75Z" fill="#18181B"/>
</svg>
