<svg width="21" height="19" viewBox="0 0 21 19" fill="none" xmlns="http://www.w3.org/2000/svg">
<path d="M18 0.25C19.2305 0.25 20.25 1.26953 20.25 2.5V12.625C20.25 13.8906 19.2305 14.875 18 14.875H12.7617L13.1133 16.5625H14.9062C15.3633 16.5625 15.75 16.9492 15.75 17.4062C15.75 17.8984 15.3633 18.25 14.9062 18.25H5.34375C4.85156 18.25 4.5 17.8984 4.5 17.4062C4.5 16.9492 4.85156 16.5625 5.34375 16.5625H7.10156L7.45312 14.875H2.25C0.984375 14.875 0 13.8906 0 12.625V2.5C0 1.26953 0.984375 0.25 2.25 0.25H18ZM11.3906 16.5625L11.0391 14.875H9.17578L8.82422 16.5625H11.3906ZM18.5625 12.625V2.5C18.5625 2.21875 18.2812 1.9375 18 1.9375H2.25C1.93359 1.9375 1.6875 2.21875 1.6875 2.5V12.625C1.6875 12.9414 1.93359 13.1875 2.25 13.1875H18C18.2812 13.1875 18.5625 12.9414 18.5625 12.625Z" fill="#18181B"/>
</svg>
