<svg width="18" height="19" viewBox="0 0 18 19" fill="none" xmlns="http://www.w3.org/2000/svg">
<path d="M0 9.25C0 4.29297 4.00781 0.25 9 0.25C13.957 0.25 18 4.29297 18 9.25C18 14.2422 13.957 18.25 9 18.25C4.00781 18.25 0 14.2422 0 9.25ZM9 16.5625C13.0078 16.5625 16.3125 13.293 16.3125 9.25C16.3125 5.24219 13.0078 1.9375 9 1.9375C4.95703 1.9375 1.6875 5.24219 1.6875 9.25C1.6875 13.293 4.95703 16.5625 9 16.5625ZM14.4141 9.25L13.8164 7.45703C13.6406 6.89453 13.9219 6.29688 14.4844 6.05078L16.3125 5.3125L16.875 10.375L15.2227 9.98828C14.8359 9.88281 14.5195 9.60156 14.4141 9.25ZM2.35547 7.63281L1.6875 6.4375L2.25 4.75L5.0625 1.9375L8.71875 0.8125L9.42188 2.11328C9.66797 2.53516 9.63281 3.02734 9.31641 3.41406L8.75391 4.04688C8.40234 4.46875 8.40234 5.06641 8.75391 5.48828L9.21094 6.05078C9.42188 6.29688 9.42188 6.61328 9.28125 6.85938C9.10547 7.10547 8.78906 7.24609 8.50781 7.14062L7.66406 6.85938C7.41797 6.78906 7.17188 6.78906 6.92578 6.92969L6.71484 7.03516C6.39844 7.17578 6.25781 7.5625 6.36328 7.87891C6.43359 8.05469 6.53906 8.19531 6.67969 8.26562L7.91016 8.96875C8.22656 9.17969 8.61328 9.25 9 9.25H10.5469C10.9688 9.25 11.4258 9.46094 11.7422 9.77734L11.8477 9.88281C12.1641 10.1992 12.375 10.6562 12.375 11.0781V11.3945C12.375 11.9922 12.0234 12.5547 11.4961 12.8359L11.1797 13.0469C10.6875 13.3281 10.3008 13.7852 10.125 14.3828L10.0898 14.5586C9.91406 15.1211 9.49219 15.543 8.92969 15.7188C8.40234 15.8594 7.83984 15.4727 7.83984 14.9102V13.8203C7.83984 13.4336 7.62891 13.082 7.27734 12.9062C6.96094 12.7656 6.71484 12.4141 6.71484 12.0273V10.6211C6.71484 9.98828 6.32812 9.42578 5.69531 9.25L3.69141 8.6875C3.09375 8.51172 2.63672 8.125 2.35547 7.63281Z" fill="#18181B"/>
</svg>
