<svg width="14" height="11" viewBox="0 0 14 11" fill="none" xmlns="http://www.w3.org/2000/svg">
<path d="M6.78906 3.27344C6.85938 3.27344 6.92969 3.25 7 3.25C8.24219 3.25 9.25 4.25781 9.25 5.5C9.25 6.74219 8.24219 7.75 7 7.75C5.73438 7.75 4.75 6.74219 4.75 5.5C4.75 5.45312 4.75 5.38281 4.75 5.3125C4.96094 5.42969 5.21875 5.5 5.5 5.5C6.32031 5.5 7 4.84375 7 4C7 3.74219 6.90625 3.48438 6.78906 3.27344ZM11.5 2.14844C12.6016 3.15625 13.3281 4.375 13.6797 5.21875C13.75 5.40625 13.75 5.61719 13.6797 5.80469C13.3281 6.625 12.6016 7.84375 11.5 8.875C10.3984 9.90625 8.875 10.75 7 10.75C5.10156 10.75 3.57812 9.90625 2.47656 8.875C1.375 7.84375 0.648438 6.625 0.296875 5.80469C0.226562 5.61719 0.226562 5.40625 0.296875 5.21875C0.648438 4.375 1.375 3.15625 2.47656 2.14844C3.57812 1.11719 5.10156 0.25 7 0.25C8.875 0.25 10.3984 1.11719 11.5 2.14844ZM7 2.125C5.125 2.125 3.625 3.64844 3.625 5.5C3.625 7.375 5.125 8.875 7 8.875C8.85156 8.875 10.375 7.375 10.375 5.5C10.375 3.64844 8.85156 2.125 7 2.125Z" fill="#09090B"/>
</svg>
