<svg width="16" height="13" viewBox="0 0 16 13" fill="none" xmlns="http://www.w3.org/2000/svg">
<path d="M14.75 4.25C15.1484 4.25 15.5 4.57812 15.5 5C15.5 5.42188 15.1484 5.75 14.75 5.75C14.3047 5.75 14.1406 5.44531 14.0938 5.375H13.25V8.375C13.25 9.40625 12.4062 10.25 11.375 10.25H9.125L6.19531 12.4531C6.125 12.5 6.07812 12.5 6.03125 12.5C5.79688 12.5 5.75 12.3125 5.75 12.2188V10.25L4.625 10.2266C3.57031 10.2266 2.75 9.38281 2.75 8.35156V5.375H1.88281C1.83594 5.39844 1.67188 5.72656 1.25 5.72656C0.828125 5.72656 0.5 5.42188 0.5 5C0.5 4.55469 0.828125 4.25 1.25 4.25C1.67188 4.25 1.83594 4.57812 1.88281 4.625H2.75V2.375C2.75 1.34375 3.57031 0.5 4.625 0.5H11.375C12.4062 0.5 13.25 1.34375 13.25 2.375V4.625H14.0938C14.1406 4.55469 14.3047 4.25 14.75 4.25ZM11.75 6.5V3.5C11.75 3.10156 11.3984 2.75 11 2.75H5C4.57812 2.75 4.25 3.10156 4.25 3.5V6.5C4.25 6.92188 4.57812 7.25 5 7.25H11C11.3984 7.25 11.75 6.92188 11.75 6.5ZM5.75 4.25C6.14844 4.25 6.5 4.60156 6.5 5C6.5 5.39844 6.14844 5.75 5.75 5.75C5.32812 5.75 5 5.39844 5 5C5 4.57812 5.32812 4.25 5.75 4.25ZM10.25 4.25C10.6484 4.25 11 4.60156 11 5C11 5.39844 10.6484 5.75 10.25 5.75C9.82812 5.75 9.5 5.39844 9.5 5C9.5 4.57812 9.82812 4.25 10.25 4.25Z" fill="#09090B"/>
</svg>
