<svg width="12" height="13" viewBox="0 0 12 13" fill="none" xmlns="http://www.w3.org/2000/svg">
<path d="M7.54688 8.375C8.01562 8.375 8.4375 8.53906 8.76562 8.82031C8.15625 9.71094 7.17188 10.25 6.04688 10.25H5.92969C5.83594 10.25 5.71875 10.25 5.625 10.25C5.64844 9.21875 6.49219 8.375 7.54688 8.375ZM12 6.5C12 9.82812 9.30469 12.5 6 12.5C2.67188 12.5 0 9.82812 0 6.5C0 3.19531 2.67188 0.5 6 0.5C9.30469 0.5 12 3.19531 12 6.5ZM4.75781 4.27344C4.61719 4.48438 4.38281 4.625 4.125 4.625C3.70312 4.625 3.375 4.29688 3.375 3.875C3.375 3.66406 3.44531 3.47656 3.58594 3.33594C3.51562 3.33594 3.44531 3.3125 3.375 3.3125C2.53125 3.3125 1.875 3.99219 1.875 4.8125V5.07031C1.875 5.44531 2.17969 5.75 2.55469 5.75H4.17188C4.54688 5.75 4.875 5.44531 4.875 5.07031V4.8125C4.875 4.625 4.82812 4.4375 4.75781 4.27344ZM8.25 3.875C8.25 3.6875 8.32031 3.5 8.4375 3.35938C8.32031 3.33594 8.17969 3.3125 8.0625 3.3125C7.125 3.3125 6.375 4.08594 6.375 5V5.1875C6.375 5.49219 6.60938 5.75 6.9375 5.75H9.16406C9.49219 5.75 9.75 5.49219 9.75 5.1875V5C9.75 4.76562 9.67969 4.53125 9.58594 4.32031C9.46875 4.50781 9.23438 4.625 9 4.625C8.57812 4.625 8.25 4.29688 8.25 3.875ZM5.92969 11H6.04688C7.33594 11 8.50781 10.3906 9.25781 9.42969C9.63281 8.96094 9.89062 8.375 10.0078 7.76562C10.0547 7.50781 9.86719 7.25 9.60938 7.25H2.36719C2.10938 7.25 1.92188 7.50781 1.96875 7.76562C2.32031 9.59375 3.89062 10.9297 5.74219 11C5.8125 11 5.85938 11 5.92969 11Z" fill="#09090B"/>
</svg>
