<svg width="25" height="24" viewBox="0 0 25 24" fill="none" xmlns="http://www.w3.org/2000/svg">
<path d="M22.7125 0C23.6031 0 24.4 0.5625 24.4 1.45312V15.6094C24.4 16.1719 24.025 16.6875 23.3688 16.9219C21.3531 17.7188 19.6656 18 18.1656 18C14.6969 18 12.3063 16.5469 8.83752 16.5469C7.15002 16.5469 5.1344 16.9219 2.65002 18V22.875C2.65002 23.5312 2.1344 24 1.52502 24C0.868774 24 0.400024 23.5312 0.400024 22.875V1.125C0.400024 0.515625 0.868774 0 1.52502 0C2.1344 0 2.65002 0.515625 2.65002 1.125V1.54688C5.41565 0.421875 7.43127 0.046875 9.0719 0.046875C12.3063 0.046875 13.9469 1.54688 16.7594 1.54688C18.0719 1.54688 19.6656 1.21875 21.775 0.234375C22.1031 0.09375 22.3844 0 22.7125 0ZM22.15 15V2.53125C20.1344 3.375 18.4 3.79688 16.7594 3.79688C15.025 3.79688 13.6656 3.32812 12.4938 2.95312C11.3688 2.625 10.3844 2.29688 9.0719 2.29688C7.52502 2.29688 5.6969 2.71875 3.49377 3.60938L2.65002 3.98438V15.5625C4.80627 14.7188 6.86877 14.2969 8.83752 14.2969C10.8531 14.2969 12.5406 14.7188 14.0406 15.0938C15.4469 15.4219 16.7125 15.75 18.1656 15.75C19.3844 15.75 20.6969 15.5156 22.15 15Z" fill="#09090B"/>
</svg>
