<svg width="16" height="13" viewBox="0 0 16 13" fill="none" xmlns="http://www.w3.org/2000/svg">
<path d="M7.97656 8C6.64062 8 5.53906 6.92188 5.5625 5.5625C5.5625 4.22656 6.64062 3.125 7.97656 3.125C9.3125 3.125 10.4141 4.22656 10.4141 5.5625C10.4141 6.92188 9.33594 8 7.97656 8ZM9.14844 8.75C11 8.75 12.5 10.1562 12.5 11.8906C12.5 12.2422 12.1953 12.5 11.8203 12.5H4.15625C3.78125 12.5 3.5 12.2422 3.5 11.8906C3.5 10.1562 4.97656 8.75 6.82812 8.75H9.14844ZM12.5 4.25C11.4453 4.25 10.625 3.42969 10.625 2.375C10.625 1.34375 11.4453 0.5 12.5 0.5C13.5312 0.5 14.375 1.34375 14.375 2.375C14.375 3.42969 13.5312 4.25 12.5 4.25ZM4.78906 5.5625C4.78906 6.35938 5.09375 7.08594 5.58594 7.625H0.898438C0.664062 7.625 0.5 7.4375 0.5 7.20312C0.5 5.98438 1.41406 5 2.5625 5H3.99219C4.29688 5 4.57812 5.07031 4.83594 5.21094C4.8125 5.32812 4.78906 5.44531 4.78906 5.5625ZM3.5 4.25C2.44531 4.25 1.625 3.42969 1.625 2.375C1.625 1.34375 2.44531 0.5 3.5 0.5C4.53125 0.5 5.375 1.34375 5.375 2.375C5.375 3.42969 4.53125 4.25 3.5 4.25ZM13.4141 5C14.5625 5 15.5 5.98438 15.5 7.20312C15.5 7.4375 15.3125 7.625 15.0781 7.625H10.3906C10.8828 7.08594 11.1641 6.35938 11.1641 5.5625C11.1641 5.44531 11.1406 5.32812 11.1406 5.21094C11.3984 5.09375 11.6797 5 11.9844 5H13.4141Z" fill="#09090B"/>
</svg>
