<svg width="28" height="25" viewBox="0 0 28 25" fill="none" xmlns="http://www.w3.org/2000/svg">
<path d="M19.825 5.625C19.825 6.04688 19.7313 6.51562 19.5438 6.98438C19.3094 7.82812 18.8406 8.8125 18.2781 9.75C18.1375 10.0312 17.9969 10.2656 17.8094 10.5C17.6219 10.8281 17.3875 11.1562 17.2 11.4844V11.5312C16.3094 12.7969 15.4656 13.9219 14.8563 14.625C14.5281 15.0938 13.825 15.0938 13.4969 14.625C12.8875 13.9219 12.0438 12.7969 11.2 11.5312C10.3094 10.2656 9.46564 8.8125 8.99689 7.54688C8.95001 7.45312 8.90314 7.35938 8.85626 7.26562C8.66876 6.65625 8.57501 6.14062 8.57501 5.625C8.57501 5.4375 8.57501 5.20312 8.57501 5.01562C8.90314 2.20312 11.2938 0 14.2 0C17.2938 0 19.825 2.53125 19.825 5.625ZM14.2 7.125C15.2313 7.125 16.075 6.32812 16.075 5.25C16.075 4.21875 15.2313 3.375 14.2 3.375C13.1219 3.375 12.325 4.21875 12.325 5.25C12.325 6.32812 13.1219 7.125 14.2 7.125ZM17.2 14.1094C17.8094 13.2656 18.5125 12.2344 19.1688 11.2031C19.2625 11.0625 19.3563 10.9219 19.45 10.7812V21.2812L25.45 19.125V7.26562L20.3406 9.09375C20.4344 8.90625 20.5281 8.67188 20.6219 8.4375C20.9031 7.78125 21.1375 7.07812 21.2313 6.375L26.1531 4.59375C26.5281 4.45312 26.9031 4.5 27.1844 4.73438C27.5125 4.92188 27.7 5.29688 27.7 5.625V19.875C27.7 20.3906 27.3719 20.8125 26.95 20.9531L18.7 23.9531C18.4188 24.0469 18.1844 24.0469 17.9031 23.9531L10.075 21.0938L2.20001 23.9531C1.82501 24.0938 1.45001 24.0469 1.16876 23.8125C0.840637 23.625 0.700012 23.25 0.700012 22.875V8.625C0.700012 8.15625 0.981262 7.73438 1.40314 7.59375L7.07501 5.53125C7.07501 5.57812 7.07501 5.625 7.07501 5.625C7.07501 6.375 7.21564 7.07812 7.45001 7.78125L2.95001 9.42188V21.2812L8.95001 19.125V10.7812C8.99689 10.9219 9.09064 11.0625 9.18439 11.2031C9.84064 12.2344 10.5438 13.2656 11.2 14.1094V19.125L17.2 21.2812V14.1094Z" fill="#09090B"/>
</svg>
