<svg width="14" height="19" viewBox="0 0 14 19" fill="none" xmlns="http://www.w3.org/2000/svg">
<path d="M3.09375 3.90625C3.09375 3.625 3.33984 3.34375 3.65625 3.34375H5.34375C5.625 3.34375 5.90625 3.625 5.90625 3.90625V5.59375C5.90625 5.91016 5.625 6.15625 5.34375 6.15625H3.65625C3.33984 6.15625 3.09375 5.91016 3.09375 5.59375V3.90625ZM9.84375 3.34375C10.125 3.34375 10.4062 3.625 10.4062 3.90625V5.59375C10.4062 5.91016 10.125 6.15625 9.84375 6.15625H8.15625C7.83984 6.15625 7.59375 5.91016 7.59375 5.59375V3.90625C7.59375 3.625 7.83984 3.34375 8.15625 3.34375H9.84375ZM3.09375 8.40625C3.09375 8.125 3.33984 7.84375 3.65625 7.84375H5.34375C5.625 7.84375 5.90625 8.125 5.90625 8.40625V10.0938C5.90625 10.4102 5.625 10.6562 5.34375 10.6562H3.65625C3.33984 10.6562 3.09375 10.4102 3.09375 10.0938V8.40625ZM9.84375 7.84375C10.125 7.84375 10.4062 8.125 10.4062 8.40625V10.0938C10.4062 10.4102 10.125 10.6562 9.84375 10.6562H8.15625C7.83984 10.6562 7.59375 10.4102 7.59375 10.0938V8.40625C7.59375 8.125 7.83984 7.84375 8.15625 7.84375H9.84375ZM0 2.5C0 1.26953 0.984375 0.25 2.25 0.25H11.25C12.4805 0.25 13.5 1.26953 13.5 2.5V16C13.5 17.2656 12.4805 18.25 11.25 18.25H2.25C0.984375 18.25 0 17.2656 0 16V2.5ZM1.6875 2.5V16C1.6875 16.3164 1.93359 16.5625 2.25 16.5625H5.0625V14.3125C5.0625 13.3984 5.80078 12.625 6.75 12.625C7.66406 12.625 8.4375 13.3984 8.4375 14.3125V16.5625H11.25C11.5312 16.5625 11.8125 16.3164 11.8125 16V2.5C11.8125 2.21875 11.5312 1.9375 11.25 1.9375H2.25C1.93359 1.9375 1.6875 2.21875 1.6875 2.5Z" fill="#18181B"/>
</svg>
