<svg width="16" height="16" viewBox="0 0 16 16" fill="none" xmlns="http://www.w3.org/2000/svg">
<path d="M13.3334 6.66634C13.3334 9.99501 9.64069 13.4617 8.40069 14.5323C8.28517 14.6192 8.14455 14.6662 8.00002 14.6662C7.85549 14.6662 7.71487 14.6192 7.59935 14.5323C6.35935 13.4617 2.66669 9.99501 2.66669 6.66634C2.66669 5.25185 3.22859 3.8953 4.22878 2.89511C5.22898 1.89491 6.58553 1.33301 8.00002 1.33301C9.41451 1.33301 10.7711 1.89491 11.7713 2.89511C12.7715 3.8953 13.3334 5.25185 13.3334 6.66634Z" stroke="#09090B" stroke-width="1.5" stroke-linecap="round" stroke-linejoin="round"/>
<path d="M8.00002 8.66634C9.10459 8.66634 10 7.77091 10 6.66634C10 5.56177 9.10459 4.66634 8.00002 4.66634C6.89545 4.66634 6.00002 5.56177 6.00002 6.66634C6.00002 7.77091 6.89545 8.66634 8.00002 8.66634Z" stroke="#09090B" stroke-width="1.5" stroke-linecap="round" stroke-linejoin="round"/>
</svg>
