<svg width="25" height="22" viewBox="0 0 25 22" fill="none" xmlns="http://www.w3.org/2000/svg">
<path d="M23.3813 0.875C24.1313 2.60938 24.6 4.71875 24.6 6.78125C24.6 12.7812 21.2719 17.7969 16.35 19.4375C15.4125 19.8125 14.3813 20 13.35 20C10.0688 20 7.20938 18.125 5.89688 15.3125C3.45938 17.7969 2.85001 20.4219 2.80313 20.6094C2.70938 21.1719 2.24063 21.5 1.72501 21.5C1.63126 21.5 1.53751 21.5 1.49063 21.5C0.881256 21.3594 0.459381 20.7969 0.600006 20.1875C0.600006 20.1406 1.44376 16.25 5.19376 12.9688C5.10001 12.5938 5.10001 12.1719 5.10001 11.7969C5.10001 7.20312 8.75626 3.5 13.35 3.5C13.9594 3.5 14.6156 3.59375 15.225 3.73438C15.7406 3.875 16.2563 3.92188 16.7719 3.92188C18.9281 3.92188 21.0375 2.89062 22.2094 0.875C22.35 0.640625 22.5844 0.5 22.7719 0.5C23.0063 0.5 23.2406 0.640625 23.3813 0.875ZM15.6469 17.2812C19.6313 15.9688 22.35 11.75 22.35 6.78125C22.35 5.98438 22.2563 5.14062 22.0688 4.34375C20.5688 5.46875 18.7406 6.125 16.725 6.125C16.0219 6.125 15.3188 6.03125 14.6625 5.89062C14.2406 5.79688 13.7719 5.75 13.3031 5.75C10.1156 5.75 7.49063 8.23438 7.30313 11.375C9.45938 10.0625 12.1781 9.07812 15.7875 8.75C16.3969 8.70312 16.9594 9.125 17.0063 9.73438C17.1 10.3906 16.6313 10.9062 16.0219 11C12.3188 11.3281 9.64688 12.4531 7.72501 13.7656C8.56876 16.0625 10.725 17.75 13.3031 17.75C14.0531 17.75 14.8031 17.6094 15.5063 17.3281L15.6 17.2812H15.6469Z" fill="#09090B"/>
</svg>
