<svg width="16" height="17" viewBox="0 0 16 17" fill="none" xmlns="http://www.w3.org/2000/svg">
<path d="M13.5 0.375C14.7305 0.375 15.75 1.39453 15.75 2.625V13.875C15.75 15.1406 14.7305 16.125 13.5 16.125H2.25C0.984375 16.125 0 15.1406 0 13.875V2.625C0 1.39453 0.984375 0.375 2.25 0.375H13.5ZM13.5 2.0625H2.25C1.93359 2.0625 1.6875 2.34375 1.6875 2.625V13.875C1.6875 14.1914 1.93359 14.4375 2.25 14.4375H13.5C13.7812 14.4375 14.0625 14.1914 14.0625 13.875V2.625C14.0625 2.34375 13.7812 2.0625 13.5 2.0625Z" fill="#18181B"/>
</svg>
