<svg width="24" height="24" viewBox="0 0 24 24" fill="none" xmlns="http://www.w3.org/2000/svg">
<path d="M23.1094 10.125C23.6719 11.0156 24 11.9531 24 12.9375C24 14.3438 23.4844 15.5625 22.4531 16.5469C21.4219 17.5312 20.2031 18 18.7969 18H13.125V22.875C13.125 23.5312 12.6094 24 12 24C11.3438 24 10.875 23.5312 10.875 22.875V18H5.20312C3.75 18 2.53125 17.5312 1.5 16.5469C0.515625 15.5625 0 14.3438 0 12.9375C0 11.9531 0.28125 11.0156 0.84375 10.125C1.21875 9.60938 1.64062 9.1875 2.15625 8.85938C2.01562 8.29688 1.96875 7.73438 2.0625 7.17188C2.20312 6.23438 2.57812 5.39062 3.23438 4.73438C3.84375 4.07812 4.64062 3.60938 5.53125 3.42188C6.04688 3.28125 6.5625 3.28125 7.07812 3.32812C7.35938 2.57812 7.82812 1.92188 8.48438 1.3125C9.46875 0.46875 10.6406 0 12 0C13.3125 0 14.4844 0.46875 15.4688 1.3125C16.125 1.875 16.5938 2.57812 16.875 3.32812C17.3906 3.28125 17.9062 3.28125 18.4219 3.42188C19.3125 3.60938 20.1094 4.07812 20.7188 4.73438C21.375 5.39062 21.75 6.23438 21.8906 7.17188C21.9844 7.73438 21.9375 8.34375 21.7969 8.90625C22.2656 9.23438 22.7812 9.70312 23.1094 10.125ZM20.8594 14.9531C21.4688 14.3906 21.75 13.7344 21.75 12.9375C21.75 12.375 21.5625 11.9062 21.2344 11.4375C21.0469 11.1562 20.3438 10.6406 19.8281 10.3125L18.8438 9.75L19.4062 8.8125C19.6406 8.34375 19.7344 7.92188 19.6875 7.5C19.5938 7.03125 19.4062 6.60938 19.125 6.28125C18.75 5.95312 18.375 5.71875 17.9062 5.625C17.4375 5.48438 16.9688 5.53125 16.5 5.76562L15.0938 6.32812L14.9531 4.82812C14.8594 4.125 14.5312 3.51562 13.9688 3C12.8438 2.01562 11.1094 2.01562 9.98438 3C9.42188 3.51562 9.09375 4.125 9 4.82812L8.85938 6.32812L7.45312 5.76562C7.125 5.625 6.84375 5.53125 6.51562 5.53125C6.375 5.53125 6.23438 5.57812 6.04688 5.625C5.57812 5.71875 5.20312 5.95312 4.82812 6.28125C4.54688 6.60938 4.35938 7.03125 4.26562 7.5C4.21875 7.92188 4.3125 8.34375 4.54688 8.76562L5.25 9.89062L4.03125 10.4062C3.46875 10.6406 3.04688 10.9688 2.71875 11.4375C2.39062 11.9062 2.25 12.375 2.25 12.9375C2.25 13.7344 2.48438 14.3906 3.09375 14.9531C3.65625 15.5156 4.35938 15.75 5.20312 15.75H10.875L10.8281 13.2656L8.15625 10.5469C7.6875 10.125 7.6875 9.42188 8.15625 8.95312C8.57812 8.53125 9.28125 8.53125 9.75 8.95312L10.875 10.0312V7.125C10.8281 6.46875 11.3438 6 11.9531 6C11.9531 6 12 6 11.9531 6C12.6094 6 13.0781 6.46875 13.125 7.125V12.2812L14.2031 11.25C14.625 10.7812 15.3281 10.7812 15.7969 11.25C16.2188 11.6719 16.2188 12.375 15.7969 12.7969L13.125 15.4688V15.75H18.7969C19.5938 15.75 20.2969 15.5156 20.8594 14.9531Z" fill="#09090B"/>
</svg>
