<svg width="18" height="19" viewBox="0 0 18 19" fill="none" xmlns="http://www.w3.org/2000/svg">
<path d="M15.1875 3.625C16.7344 3.625 18 4.89062 18 6.4375V15.4375C18 17.0195 16.7344 18.25 15.1875 18.25H2.8125C1.23047 18.25 0 17.0195 0 15.4375V6.4375C0 4.89062 1.23047 3.625 2.8125 3.625H6.67969L4.74609 1.69141C4.39453 1.375 4.39453 0.847656 4.74609 0.53125C5.0625 0.179688 5.58984 0.179688 5.94141 0.53125L9 3.55469L12.0586 0.53125C12.375 0.179688 12.9023 0.179688 13.2539 0.53125C13.5703 0.847656 13.5703 1.375 13.2539 1.69141L11.3203 3.625H15.1875ZM16.3125 15.7188V6.15625C16.3125 5.69922 15.9258 5.3125 15.4688 5.3125H2.53125C2.03906 5.3125 1.6875 5.69922 1.6875 6.15625V15.7188C1.6875 16.2109 2.03906 16.5625 2.53125 16.5625H15.4688C15.9258 16.5625 16.3125 16.2109 16.3125 15.7188ZM14.625 7.28125C15.082 7.28125 15.4688 7.66797 15.4688 8.125C15.4688 8.61719 15.082 8.96875 14.625 8.96875C14.1328 8.96875 13.7812 8.61719 13.7812 8.125C13.7812 7.66797 14.1328 7.28125 14.625 7.28125ZM10.5469 7C11.5664 7 12.375 7.80859 12.375 8.75781V13.1523C12.375 14.1016 11.5664 14.875 10.5469 14.875H5.16797C4.14844 14.875 3.375 14.1016 3.375 13.1523V8.75781C3.375 7.80859 4.14844 7 5.16797 7H10.5469ZM14.625 10.0938C15.082 10.0938 15.4688 10.4805 15.4688 10.9375C15.4688 11.4297 15.082 11.7812 14.625 11.7812C14.1328 11.7812 13.7812 11.4297 13.7812 10.9375C13.7812 10.4805 14.1328 10.0938 14.625 10.0938Z" fill="#18181B"/>
</svg>
